<svg id="Layer_1" data-name="Layer 1" xmlns="http://www.w3.org/2000/svg" viewBox="0 0 403.28 382.3"><defs><style>.cls-1{fill:gray;stroke:gray;stroke-miterlimit:10;stroke-width:3px;}</style></defs><title>bell</title><path class="cls-1" d="M640.88,682.6l-8.17-5.82V542.65c0-.24,0-.46-.06-.69C630.37,462.08,566.75,398,488.59,398V694.75c.76,0,1.52,0,2.27,0v21.67H688.33Z" transform="translate(-289.74 -381.9)"/><path class="cls-1" d="M342.22,681.15l8.22-5.74,1.3-134.12c0-.24.05-.46.08-.69,3.06-79.86,67.3-143.28,145.45-142.52l-2.88,296.69-2.28,0-.21,21.67-7.68-.08-94.89-.91L350.22,715l-55.77-.54Z" transform="translate(-289.74 -381.9)"/><ellipse class="cls-1" cx="202.71" cy="14.62" rx="18.16" ry="13.12"/><path class="cls-1" d="M530.05,733.31c0,16.23-16.79,29.39-37.51,29.39S455,749.54,455,733.31" transform="translate(-289.74 -381.9)"/></svg>