<svg xmlns="http://www.w3.org/2000/svg" viewBox="0 0 382.48 326.54"><defs><style>.cls-1{fill:#fff;}.cls-1,.cls-2{stroke:gray;stroke-miterlimit:10;stroke-width:5px;}.cls-2{fill:none;}</style></defs><title>cloud_1</title><g id="Layer_2" data-name="Layer 2"><g id="Layer_1-2" data-name="Layer 1"><path class="cls-1" d="M74.37,219.87C30.53,216.12-1.47,182.65,2.9,145.09,7.51,105.46,54.35,79,90.18,83.87a64.88,64.88,0,0,1,30,12.58"/><path class="cls-1" d="M275.19,60.81c51.62-5.1,98.26,26.37,104.17,70.29s-31.14,83.67-82.77,88.77"/><path class="cls-1" d="M67.47,83.29c8-27.63,28.16-52.17,58.57-67,60.83-29.75,139.64-9.62,176,45"/><path class="cls-1" d="M232.12,205.2l-35.71-38.94c-5.17-5.64-18.1-5.64-23.27,0L137.43,205.2c-5.17,5.64,1.29,12.69,11.63,12.69h0c4.8,0,9.23-1.61,11.63-4.23l10.45-11.39V315.46c0,4.72,6.14,8.58,13.64,8.58s13.63-3.86,13.63-8.58V202.27l10.45,11.39c2.4,2.62,6.83,4.23,11.63,4.23C230.83,217.89,237.29,210.84,232.12,205.2Z"/><line class="cls-2" x1="296.59" y1="219.87" x2="245.85" y2="219.87"/><line class="cls-2" x1="74.37" y1="219.87" x2="120.17" y2="219.87"/></g></g></svg>