<svg xmlns="http://www.w3.org/2000/svg" viewBox="0 0 568.25 568.25"><defs><style>.cls-1{fill:#666;}.cls-1,.cls-2{opacity:0.8;}.cls-2{fill:#fff;}</style></defs><title>cycle_1</title><g id="Layer_2" data-name="Layer 2"><g id="Layer_1-2" data-name="Layer 1"><circle class="cls-1" cx="284.13" cy="284.13" r="284.13"/><path class="cls-2" d="M279.79,59C217.15,60,164,88.31,142.71,127.47c-8.11,14.91,7.68,29.81,29.79,31.14,3.11.19,5.59-1.76,4.79-3.76A30.37,30.37,0,0,1,175,144c-.5-30,44.36-55,100.19-55.95,48.43-.79,89.18,16.84,99.46,41.1l-21.92,12.65c-8.87,5.12-6.25,14.61,4.73,17.13l82.07,18.86c11.09,2.55,22.31-3.93,20.09-11.59l-16.45-56.72c-2.21-7.59-16-10.66-24.83-5.54l-9.17,5.29C382.91,78.33,334.65,58.1,279.79,59Z"/><path class="cls-2" d="M496.12,369.86c29.49-55.27,29.62-116,4.43-154.25C491,201,469.76,207.33,457.81,226c-1.68,2.62-1.11,5.77,1.09,6.07a32.54,32.54,0,0,1,11,3.51c27.46,14.65,28.4,66.46,2.12,115.72-22.8,42.73-58.59,69.49-85.6,66.28L385.57,392c-.34-10.32-10.23-12.8-17.86-4.47l-57,62.26c-7.7,8.41-7.27,21.48.77,23.39L371,487.35c8,1.89,17.42-8.59,17.09-18.91l-.35-10.67C428.5,450.28,470.29,418.26,496.12,369.86Z"/><path class="cls-2" d="M105.34,388.26c34.33,52.41,86,82.62,129.62,80.27,16.61-.89,20.43-22,9.7-41.35-1.51-2.73-4.43-3.81-5.65-2.09a28.91,28.91,0,0,1-7.76,7.56c-24.41,16-69-8.9-99.6-55.6-26.55-40.52-33.83-84.12-19.36-105.41l22.13,12c9,4.83,15.36-2.32,11.57-12.91l-28.36-79.15c-3.83-10.7-15.16-16.81-20.28-10.95L59.48,224c-5.07,5.8-.25,19,8.71,23.86l9.25,5C66.12,291.08,75.27,342.37,105.34,388.26Z"/></g></g></svg>