<svg xmlns="http://www.w3.org/2000/svg" viewBox="0 0 382.37 330.63"><defs><style>.cls-1{fill:gray;stroke:gray;stroke-miterlimit:10;stroke-width:10px;}</style></defs><title>display</title><g id="Layer_2" data-name="Layer 2"><g id="Layer_1-2" data-name="Layer 1"><path class="cls-1" d="M370.28,5H12.09A7.13,7.13,0,0,0,5,12.16v189.4a7.13,7.13,0,0,0,7.09,7.16h88.58v-6.09H23.21a7.12,7.12,0,0,1-7.08-7.16V18.25a7.12,7.12,0,0,1,7.08-7.16h336a7.13,7.13,0,0,1,7.09,7.16V195.47a7.13,7.13,0,0,1-7.09,7.16H280.23v6.09h90a7.13,7.13,0,0,0,7.09-7.16V12.16A7.13,7.13,0,0,0,370.28,5Z"/><path class="cls-1" d="M186.15,166.55,99.35,316.9a5.82,5.82,0,0,0,5,8.73H278a5.82,5.82,0,0,0,5-8.73L196.22,166.55A5.82,5.82,0,0,0,186.15,166.55Z"/></g></g></svg>