<svg xmlns="http://www.w3.org/2000/svg" viewBox="0 0 624.31 287.44"><defs><style>.cls-1,.cls-2{fill:gray;stroke:gray;stroke-miterlimit:10;stroke-width:10px;}.cls-2{opacity:0.3;}</style></defs><title>display_hovered</title><g id="Layer_2" data-name="Layer 2"><g id="Layer_1-2" data-name="Layer 1"><path class="cls-1" d="M327.51,149.29,477.86,236.1a5.81,5.81,0,0,0,8.72-5V57.45a5.81,5.81,0,0,0-8.72-5l-150.35,86.8A5.81,5.81,0,0,0,327.51,149.29Z"/><path class="cls-1" d="M358.42,205.06v9.79A10.42,10.42,0,0,1,348,225.27H40.06a10.42,10.42,0,0,1-10.42-10.42V75.56A10.42,10.42,0,0,1,40.06,65.14H348a10.42,10.42,0,0,1,10.42,10.42v7.89a10.43,10.43,0,0,0,10.42,10.43h0a10.43,10.43,0,0,0,10.43-10.43V57.56a10.42,10.42,0,0,0-10.43-10.42H15.42A10.42,10.42,0,0,0,5,57.56V231a10.43,10.43,0,0,0,10.42,10.43H368.84A10.43,10.43,0,0,0,379.27,231V205.06a10.42,10.42,0,0,0-10.43-10.42h0A10.42,10.42,0,0,0,358.42,205.06Z"/><rect class="cls-2" x="525.61" y="14.18" width="88.2" height="39.2" rx="19.6" transform="translate(28.87 215.99) rotate(-22.01)"/><rect class="cls-2" x="528.26" y="231.82" width="88.2" height="39.2" rx="19.6" transform="translate(183.51 -238.07) rotate(27.82)"/><rect class="cls-2" x="531.11" y="121.88" width="88.2" height="39.2" rx="19.6"/></g></g></svg>