<svg xmlns="http://www.w3.org/2000/svg" viewBox="0 0 446.99 446.99"><defs><style>.cls-1{fill:#666;stroke:#666;}.cls-1,.cls-2{stroke-miterlimit:10;stroke-width:20px;}.cls-2{fill:#fff;stroke:#fff;}</style></defs><title>down</title><g id="Layer_2" data-name="Layer 2"><g id="Layer_1-2" data-name="Layer 1"><circle class="cls-1" cx="223.5" cy="223.5" r="213.5"/><path class="cls-2" d="M270.63,253.38l-8.72,0A3.26,3.26,0,0,0,259.1,255l-23.63,41.2-.53-188.51a9.3,9.3,0,0,0-9.33-9.27h-4.94a9.3,9.3,0,0,0-9.27,9.33l.53,188.51-23.87-41.07a3.22,3.22,0,0,0-2.81-1.61l-10.36,0a6.05,6.05,0,0,0-5.22,9.09l48.11,82.78a6,6,0,0,0,10.48,0l47.64-83.05A6,6,0,0,0,270.63,253.38Z"/></g></g></svg>