<svg xmlns="http://www.w3.org/2000/svg" viewBox="0 0 510.91 498.41"><defs><style>.cls-1,.cls-2,.cls-3{fill:gray;}.cls-1,.cls-2{stroke:#4d4d4d;stroke-miterlimit:10;stroke-width:10px;}.cls-1{opacity:0.8;}</style></defs><title>downloading_1</title><g id="Layer_2" data-name="Layer 2"><g id="Layer_1-2" data-name="Layer 1"><rect class="cls-1" x="5" y="5" width="500.91" height="208.43" rx="38.92"/><rect class="cls-2" x="76.87" y="57.11" width="28.86" height="104.22" rx="14.43"/><rect class="cls-2" x="311.37" y="57.11" width="28.86" height="104.22" rx="14.43"/><rect class="cls-2" x="226.59" y="57.11" width="28.86" height="104.22" rx="14.43"/><rect class="cls-2" x="151.73" y="57.11" width="28.86" height="104.22" rx="14.43"/><rect class="cls-2" x="391.65" y="57.11" width="28.86" height="104.22" rx="14.43"/><path class="cls-3" d="M282.53,418.5h0a10.13,10.13,0,0,0-8.54,6l-.31.67V241c0-9.54-6.42-17.27-14.35-17.27h-11c-7.92,0-14.35,7.73-14.35,17.27V427.6l-.67-1.2a9.78,9.78,0,0,0-8.9-5.21h0c-7.75.36-12.29,9.94-8.18,17.24l30.85,54.76c4.12,7.3,13.8,6.85,17.44-.81l27.26-57.45C295.42,427.27,290.28,418.14,282.53,418.5Z"/></g></g></svg>