<svg xmlns="http://www.w3.org/2000/svg" viewBox="0 0 568.25 568.25"><defs><style>.cls-1,.cls-2{fill:#666;}.cls-1{opacity:0.7;}.cls-3{fill:#fff;}</style></defs><title>loading</title><g id="Layer_2" data-name="Layer 2"><g id="Layer_1-2" data-name="Layer 1"><circle class="cls-1" cx="284.13" cy="284.13" r="284.13"/><path class="cls-2" d="M315.53,201.07l31,.69a18.15,18.15,0,0,1,16.7,24.18L352.9,255.17a18.12,18.12,0,0,0,2.67,17l18.78,24.66A18.14,18.14,0,0,1,365.86,325l-29.28,10.16a18.12,18.12,0,0,0-11.65,12.71l-7.57,30.06a18.14,18.14,0,0,1-27.28,10.9l-26.2-16.57a18.16,18.16,0,0,0-17.2-1.18l-28.22,12.82a18.13,18.13,0,0,1-25.53-14.53l-3.39-30.81a18.16,18.16,0,0,0-9.8-14.19l-27.62-14.06a18.14,18.14,0,0,1-4.55-29l22-21.86a18.16,18.16,0,0,0,5-16.5l-6.23-30.37a18.15,18.15,0,0,1,19.86-21.66L219,194.43a18.11,18.11,0,0,0,16-6.4l19.87-23.79a18.14,18.14,0,0,1,29.31,2l16.42,26.29A18.1,18.1,0,0,0,315.53,201.07Z"/><circle class="cls-3" cx="263.39" cy="272.08" r="23.98"/><path class="cls-2" d="M452.4,115.17l22.21.5a13,13,0,0,1,12,17.33l-7.39,20.94a13,13,0,0,0,1.92,12.21l13.46,17.67A13,13,0,0,1,488.47,204l-21,7.28a13,13,0,0,0-8.34,9.11l-5.43,21.54a13,13,0,0,1-19.55,7.82l-18.78-11.88a13,13,0,0,0-12.33-.84l-20.22,9.19a13,13,0,0,1-18.3-10.42L362.1,213.7a13,13,0,0,0-7-10.17l-19.8-10.08a13,13,0,0,1-3.26-20.8L347.77,157a13,13,0,0,0,3.57-11.83l-4.46-21.76a13,13,0,0,1,14.23-15.52l22.07,2.54a13,13,0,0,0,11.47-4.58l14.23-17.06a13,13,0,0,1,21,1.45l11.77,18.84A13,13,0,0,0,452.4,115.17Z"/><circle class="cls-3" cx="412.7" cy="167.93" r="11.99"/></g></g></svg>