<svg xmlns="http://www.w3.org/2000/svg" viewBox="0 0 568 568" id="el_SJ631ueT7"><style>@-webkit-keyframes el_ByX6h1dgTm_rJOegdeTQ_Animation{0%{-webkit-transform: translate(260.1593933105469px, 274.6772003173828px) rotate(0deg) translate(-260.1593933105469px, -274.6772003173828px);transform: translate(260.1593933105469px, 274.6772003173828px) rotate(0deg) translate(-260.1593933105469px, -274.6772003173828px);}100%{-webkit-transform: translate(260.1593933105469px, 274.6772003173828px) rotate(360deg) translate(-260.1593933105469px, -274.6772003173828px);transform: translate(260.1593933105469px, 274.6772003173828px) rotate(360deg) translate(-260.1593933105469px, -274.6772003173828px);}}@keyframes el_ByX6h1dgTm_rJOegdeTQ_Animation{0%{-webkit-transform: translate(260.1593933105469px, 274.6772003173828px) rotate(0deg) translate(-260.1593933105469px, -274.6772003173828px);transform: translate(260.1593933105469px, 274.6772003173828px) rotate(0deg) translate(-260.1593933105469px, -274.6772003173828px);}100%{-webkit-transform: translate(260.1593933105469px, 274.6772003173828px) rotate(360deg) translate(-260.1593933105469px, -274.6772003173828px);transform: translate(260.1593933105469px, 274.6772003173828px) rotate(360deg) translate(-260.1593933105469px, -274.6772003173828px);}}@-webkit-keyframes el_HyBThJdlp7_H1yCJ_xaX_Animation{0%{-webkit-transform: translate(412.7332763671875px, 167.94324493408203px) rotate(0deg) translate(-412.7332763671875px, -167.94324493408203px);transform: translate(412.7332763671875px, 167.94324493408203px) rotate(0deg) translate(-412.7332763671875px, -167.94324493408203px);}100%{-webkit-transform: translate(412.7332763671875px, 167.94324493408203px) rotate(360deg) translate(-412.7332763671875px, -167.94324493408203px);transform: translate(412.7332763671875px, 167.94324493408203px) rotate(360deg) translate(-412.7332763671875px, -167.94324493408203px);}}@keyframes el_HyBThJdlp7_H1yCJ_xaX_Animation{0%{-webkit-transform: translate(412.7332763671875px, 167.94324493408203px) rotate(0deg) translate(-412.7332763671875px, -167.94324493408203px);transform: translate(412.7332763671875px, 167.94324493408203px) rotate(0deg) translate(-412.7332763671875px, -167.94324493408203px);}100%{-webkit-transform: translate(412.7332763671875px, 167.94324493408203px) rotate(360deg) translate(-412.7332763671875px, -167.94324493408203px);transform: translate(412.7332763671875px, 167.94324493408203px) rotate(360deg) translate(-412.7332763671875px, -167.94324493408203px);}}#el_SJ631ueT7 *{-webkit-animation-duration: 3s;animation-duration: 3s;-webkit-animation-iteration-count: infinite;animation-iteration-count: infinite;-webkit-animation-timing-function: cubic-bezier(0, 0, 1, 1);animation-timing-function: cubic-bezier(0, 0, 1, 1);}#el_rkf6nkdx6X{fill: #666;opacity: 0.7;}#el_ByX6h1dgTm{fill: #666;}#el_Bk4ahyuxpm{fill: #fff;}#el_HyBThJdlp7{fill: #666;}#el_HJLa31Oe6m{fill: #fff;}#el_HyBThJdlp7_H1yCJ_xaX{-webkit-animation-name: el_HyBThJdlp7_H1yCJ_xaX_Animation;animation-name: el_HyBThJdlp7_H1yCJ_xaX_Animation;-webkit-transform: translate(412.7332763671875px, 167.94324493408203px) rotate(0deg) translate(-412.7332763671875px, -167.94324493408203px);transform: translate(412.7332763671875px, 167.94324493408203px) rotate(0deg) translate(-412.7332763671875px, -167.94324493408203px);}#el_ByX6h1dgTm_rJOegdeTQ{-webkit-transform: translate(260.1593933105469px, 274.6772003173828px) rotate(0deg) translate(-260.1593933105469px, -274.6772003173828px);transform: translate(260.1593933105469px, 274.6772003173828px) rotate(0deg) translate(-260.1593933105469px, -274.6772003173828px);-webkit-animation-name: el_ByX6h1dgTm_rJOegdeTQ_Animation;animation-name: el_ByX6h1dgTm_rJOegdeTQ_Animation;}</style><defs/><title>loading</title><g id="el_HJgT21_gam" data-name="Layer 2"><g id="el_rybanyuxpX" data-name="Layer 1"><circle cx="284.13" cy="284.13" r="284.13" id="el_rkf6nkdx6X"/><g id="el_ByX6h1dgTm_rJOegdeTQ" data-animator-group="true" data-animator-type="1"><path d="M315.53,201.07l31,.69a18.15,18.15,0,0,1,16.7,24.18L352.9,255.17a18.12,18.12,0,0,0,2.67,17l18.78,24.66A18.14,18.14,0,0,1,365.86,325l-29.28,10.16a18.12,18.12,0,0,0-11.65,12.71l-7.57,30.06a18.14,18.14,0,0,1-27.28,10.9l-26.2-16.57a18.16,18.16,0,0,0-17.2-1.18l-28.22,12.82a18.13,18.13,0,0,1-25.53-14.53l-3.39-30.81a18.16,18.16,0,0,0-9.8-14.19l-27.62-14.06a18.14,18.14,0,0,1-4.55-29l22-21.86a18.16,18.16,0,0,0,5-16.5l-6.23-30.37a18.15,18.15,0,0,1,19.86-21.66L219,194.43a18.11,18.11,0,0,0,16-6.4l19.87-23.79a18.14,18.14,0,0,1,29.31,2l16.42,26.29A18.1,18.1,0,0,0,315.53,201.07Z" id="el_ByX6h1dgTm"/></g><circle cx="263.39" cy="272.08" r="23.98" id="el_Bk4ahyuxpm"/><g id="el_HyBThJdlp7_H1yCJ_xaX" data-animator-group="true" data-animator-type="1"><path d="M452.4,115.17l22.21.5a13,13,0,0,1,12,17.33l-7.39,20.94a13,13,0,0,0,1.92,12.21l13.46,17.67A13,13,0,0,1,488.47,204l-21,7.28a13,13,0,0,0-8.34,9.11l-5.43,21.54a13,13,0,0,1-19.55,7.82l-18.78-11.88a13,13,0,0,0-12.33-.84l-20.22,9.19a13,13,0,0,1-18.3-10.42L362.1,213.7a13,13,0,0,0-7-10.17l-19.8-10.08a13,13,0,0,1-3.26-20.8L347.77,157a13,13,0,0,0,3.57-11.83l-4.46-21.76a13,13,0,0,1,14.23-15.52l22.07,2.54a13,13,0,0,0,11.47-4.58l14.23-17.06a13,13,0,0,1,21,1.45l11.77,18.84A13,13,0,0,0,452.4,115.17Z" id="el_HyBThJdlp7"/></g><circle cx="412.7" cy="167.93" r="11.99" id="el_HJLa31Oe6m"/></g></g></svg>