<svg xmlns="http://www.w3.org/2000/svg" viewBox="0 0 446.99 446.99"><defs><style>.cls-1{fill:#666;stroke:#666;}.cls-1,.cls-2{stroke-miterlimit:10;stroke-width:20px;}.cls-2{fill:#fff;stroke:#fff;}</style></defs><title>up</title><g id="Layer_2" data-name="Layer 2"><g id="Layer_1-2" data-name="Layer 1"><circle class="cls-1" cx="223.5" cy="223.5" r="213.5"/><path class="cls-2" d="M176.26,193.77l8.72-.05a3.24,3.24,0,0,0,2.8-1.64l23.49-41.28,1.17,188.51a9.31,9.31,0,0,0,9.36,9.24l4.94,0a9.3,9.3,0,0,0,9.25-9.36l-1.18-188.51,24,41a3.23,3.23,0,0,0,2.82,1.6l10.36-.06a6,6,0,0,0,5.18-9.11L228.8,101.45a6.06,6.06,0,0,0-10.49.06L171,184.73A6,6,0,0,0,176.26,193.77Z"/></g></g></svg>