<svg xmlns="http://www.w3.org/2000/svg" viewBox="0 0 526 394" id="el_HJXlwo1BP2m"><style>@-webkit-keyframes el_HyneDjyBw3m_Animation{0%{opacity: 0;}33.33%{opacity: 1;}100%{opacity: 1;}}@keyframes el_HyneDjyBw3m_Animation{0%{opacity: 0;}33.33%{opacity: 1;}100%{opacity: 1;}}#el_HJXlwo1BP2m *{-webkit-animation-duration: 3s;animation-duration: 3s;-webkit-animation-timing-function: cubic-bezier(0, 0, 1, 1);animation-timing-function: cubic-bezier(0, 0, 1, 1);}#el_HJIevsJBP2m{fill: #cc2e2e;}#el_Byvgvi1Hw27{fill: #6bf400;stroke: #6bf400;stroke-miterlimit: 10;}#el_S1OlvsJSDhQ{fill: #513607;}#el_rJYlvsJBPhX{fill: #e8a621;}#el_B1qgPi1rv3X{fill: #e8a621;}#el_HJixviyrPn7{fill: #e8a621;}#el_HyneDjyBw3m{fill: #f4cf14;-webkit-animation-name: el_HyneDjyBw3m_Animation;animation-name: el_HyneDjyBw3m_Animation;opacity: 0;}#el_B16gDjkHv37{fill: #705a13;}#el_ryRxPi1Svn7{fill: #705a13;}#el_HJyWDjySw2Q{fill: #705a13;}#el_SyeWwokHP2m{fill: #705a13;}#el_BJb-woyrP3m{fill: #705a13;}#el_ByMZPsyBPnQ{fill: #705a13;}#el_HymbvsyHDhQ{fill: #705a13;}#el_r1NWPskSDnQ{fill: #705a13;}#el_SJSWPsJHPhQ{fill: #705a13;}#el_Hy8bDikrP2Q{fill: #705a13;}#el_HJvWPjJSPhm{fill: #705a13;}#el_SJdZPo1rDhX{fill: #705a13;}#el_S1K-viyBPhX{fill: #705a13;}#el_SJqWPi1Bwn7{fill: #705a13;}#el_rkoWPjJHvhX{fill: #705a13;}#el_SJ3bviJBDhQ{fill: #705a13;}#el_r1aZwsJBwhQ{fill: #705a13;}#el_SkRZPs1BD37{fill: #705a13;}#el_B14xvjyHDn7_S1BggBwhm{-webkit-transform: translate(0.4980659484863281px, 0px) rotate(360deg) translate(-0.4980659484863281px, 0px);transform: translate(0.4980659484863281px, 0px) rotate(360deg) translate(-0.4980659484863281px, 0px);}</style><defs/><title>Asset 1</title><g id="el_B14xvjyHDn7" data-name="Layer 2"><g id="el_S1SewokBw2X"><rect x="25.75" y="220.51" width="492.78" height="58.9" rx="12" id="el_HJIevsJBP2m"/><path d="M57.63,205.75C-134.66,260.65,220.09,234,220.09,234c260.25,34.94,295.06,6.45,295.06,6.45,69.63-119.59-229.1-34.73-229.1-34.73C132.23,164.15,57.63,205.75,57.63,205.75Z" id="el_Byvgvi1Hw27"/><path d="M514.31,209H55.93c-22,0-29.53-7.52-29.53-16.72V160.76a16.76,16.76,0,0,1,16.72-16.71H501.5a16.76,16.76,0,0,1,16.71,16.71v31.56C518.21,201.52,510.69,209,514.31,209Z" id="el_S1OlvsJSDhQ"/><polygon points="230.22 148.56 242.58 148.56 242.58 148.56 230.22 148.56 230.22 148.56" id="el_rJYlvsJBPhX"/><path d="M502.19,148.23a19,19,0,0,0,17.32-26.74C494.16,64.91,465.72,3.5,380,0H185.4c7.34,0-31,1.94-45.06,8.14C63.81,41.84,51,71.65,27.4,121.08a19,19,0,0,0,17.13,27.15Z" id="el_B1qgPi1rv3X"/><path d="M34.36,310.42C68,350.13,121.94,386,166.71,394.29a18.87,18.87,0,0,0,3.35.29H373.64c.69,0,1.38-.07,2.07-.1,64-2.8,126.93-40.67,139.88-86.59,3.93-13.93-1.53-28.21-16-28.21h-451C32.64,279.68,24.08,298.28,34.36,310.42Z" id="el_HJixviyrPn7"/><polyline points="499.16 281.37 292.57 394.58 79.89 279.41" id="el_HyneDjyBw3m"/><path d="M127.82,47.87a10.51,10.51,0,0,0-2.69,3.36c-2.44,4.84-.82,10.57,3.62,12.82s10,.14,12.46-4.69a10.37,10.37,0,0,0,1.11-4.16h0l3.88-23-18.39,15.7Z" id="el_B16gDjkHv37"/><path d="M125.83,103.83l-1.44-23.31L110,100h0a10.48,10.48,0,0,0-1.86,3.89c-1.28,5.26,1.6,10.48,6.44,11.65s9.79-2.12,11.07-7.38a10.5,10.5,0,0,0,.14-4.31Z" id="el_ryRxPi1Svn7"/><path d="M269.8,54.18a10.63,10.63,0,0,0-2-3.82h0L255.14,30.74l-3,24h0a10.36,10.36,0,0,0,.28,4.3c1.46,5.21,6.52,8.35,11.32,7S271.25,59.4,269.8,54.18Z" id="el_HJyWDjySw2Q"/><path d="M280.9,104.17a10.45,10.45,0,0,0-1.84-3.89h0L267.13,80.2l-3.88,23.87h0a10.27,10.27,0,0,0,.12,4.3c1.26,5.27,6.2,8.59,11,7.43S282.16,109.44,280.9,104.17Z" id="el_SyeWwokHP2m"/><path d="M186.62,52.7,179.7,30.4l-9.34,22.3h0a10.52,10.52,0,0,0-.88,4.22c0,5.41,4,9.8,9,9.8s9-4.39,9-9.8a10.52,10.52,0,0,0-.88-4.22Z" id="el_BJb-woyrP3m"/><path d="M169.65,102.29,162.73,80l-9.34,22.31h0a10.27,10.27,0,0,0-.89,4.21c0,5.42,4,9.8,9,9.8s9-4.38,9-9.8a10.43,10.43,0,0,0-.88-4.21Z" id="el_ByMZPsyBPnQ"/><path d="M209.67,101.9h0l-8-22-8.26,22.73h0a10.3,10.3,0,0,0-.68,4.25c.25,5.41,4.49,9.6,9.46,9.36s8.8-4.81,8.54-10.22A10.42,10.42,0,0,0,209.67,101.9Z" id="el_HymbvsyHDhQ"/><path d="M227.91,52.7h0L221,30.4l-9.34,22.3h0a10.35,10.35,0,0,0-.89,4.22c0,5.41,4,9.8,9,9.8s9-4.39,9-9.8A10.52,10.52,0,0,0,227.91,52.7Z" id="el_r1NWPskSDnQ"/><path d="M244.66,100.73h0L233.79,80.07l-5.11,23.63h0a10.39,10.39,0,0,0-.1,4.31c1,5.32,5.76,8.9,10.65,8s8.06-6,7.07-11.28A10.5,10.5,0,0,0,244.66,100.73Z" id="el_SJSWPsJHPhQ"/><path d="M308.36,47.8a10.41,10.41,0,0,0-2.69,3.36c-2.45,4.83-.82,10.57,3.62,12.81s10,.15,12.46-4.68a10.41,10.41,0,0,0,1.11-4.16h0l3.88-23-18.4,15.7Z" id="el_Hy8bDikrP2Q"/><path d="M306.37,103.76l-1.44-23.31L290.58,99.91h0a10.48,10.48,0,0,0-1.86,3.89c-1.28,5.26,1.6,10.47,6.44,11.65s9.79-2.13,11.07-7.39a10.45,10.45,0,0,0,.14-4.3Z" id="el_HJvWPjJSPhm"/><path d="M450.34,54.11a10.63,10.63,0,0,0-2-3.82h0L435.68,30.67l-3,24h0A10.36,10.36,0,0,0,433,59c1.46,5.21,6.52,8.35,11.32,7S451.79,59.33,450.34,54.11Z" id="el_SJdZPo1rDhX"/><path d="M461.44,104.1a10.45,10.45,0,0,0-1.84-3.89h0L447.67,80.13,443.79,104h0a10.66,10.66,0,0,0,.12,4.31c1.27,5.26,6.21,8.59,11,7.43S462.7,109.36,461.44,104.1Z" id="el_S1K-viyBPhX"/><path d="M367.16,52.63l-6.93-22.3-9.33,22.3h0a10.52,10.52,0,0,0-.88,4.22c0,5.41,4,9.8,9,9.8s9-4.39,9-9.8a10.35,10.35,0,0,0-.89-4.22Z" id="el_SJqWPi1Bwn7"/><path d="M350.19,102.21l-6.92-22.3-9.34,22.3h0a10.52,10.52,0,0,0-.88,4.22c0,5.41,4,9.8,9,9.8s9-4.39,9-9.8a10.52,10.52,0,0,0-.88-4.22Z" id="el_rkoWPjJHvhX"/><path d="M390.21,101.82h0l-8-21.95L374,102.6h0a10.47,10.47,0,0,0-.69,4.25c.26,5.41,4.5,9.6,9.47,9.36s8.79-4.81,8.54-10.22A10.63,10.63,0,0,0,390.21,101.82Z" id="el_SJ3bviJBDhQ"/><path d="M408.45,52.63h0l-6.92-22.3-9.34,22.3h0a10.52,10.52,0,0,0-.88,4.22c0,5.41,4,9.8,9,9.8s9-4.39,9-9.8A10.52,10.52,0,0,0,408.45,52.63Z" id="el_r1aZwsJBwhQ"/><path d="M425.2,100.66h0L414.32,80l-5.1,23.64h0a10.34,10.34,0,0,0-.1,4.3c1,5.33,5.75,8.9,10.65,8s8.06-6,7.07-11.29A10.68,10.68,0,0,0,425.2,100.66Z" id="el_SkRZPs1BD37"/></g></g></svg>