<svg xmlns="http://www.w3.org/2000/svg" viewBox="0 0 161 299" id="el_rJqBoNP2Q"><style>@-webkit-keyframes el_SyUcSiVD2X_Animation{43.33%{opacity: 0;}45.56%{opacity: 1;}0%{opacity: 0;}100%{opacity: 1;}}@keyframes el_SyUcSiVD2X_Animation{43.33%{opacity: 0;}45.56%{opacity: 1;}0%{opacity: 0;}100%{opacity: 1;}}@-webkit-keyframes el_ryHcrjED3Q_Animation{40%{opacity: 0;}42.22%{opacity: 1;}0%{opacity: 0;}100%{opacity: 1;}}@keyframes el_ryHcrjED3Q_Animation{40%{opacity: 0;}42.22%{opacity: 1;}0%{opacity: 0;}100%{opacity: 1;}}@-webkit-keyframes el_r149Hj4vh7_Animation{32.22%{opacity: 0;}35.56%{opacity: 1;}0%{opacity: 0;}100%{opacity: 1;}}@keyframes el_r149Hj4vh7_Animation{32.22%{opacity: 0;}35.56%{opacity: 1;}0%{opacity: 0;}100%{opacity: 1;}}@-webkit-keyframes el_r1McHiEvnQ_Animation{0%{opacity: 0;}32.22%{opacity: 1;}100%{opacity: 1;}}@keyframes el_r1McHiEvnQ_Animation{0%{opacity: 0;}32.22%{opacity: 1;}100%{opacity: 1;}}#el_rJqBoNP2Q *{-webkit-animation-duration: 3s;animation-duration: 3s;-webkit-animation-timing-function: cubic-bezier(0, 0, 1, 1);animation-timing-function: cubic-bezier(0, 0, 1, 1);}#el_r1McHiEvnQ{fill: #006837;stroke: #000;stroke-miterlimit: 10;stroke-width: 2px;-webkit-animation-name: el_r1McHiEvnQ_Animation;animation-name: el_r1McHiEvnQ_Animation;opacity: 0;}#el_ByQ5HoNPn7{stroke: #000;stroke-miterlimit: 10;stroke-width: 2px;fill: #f15a24;-webkit-transform: translate(-146.64px, 180.07px) rotate(-72.03deg);transform: translate(-146.64px, 180.07px) rotate(-72.03deg);}#el_r149Hj4vh7{stroke: #000;stroke-miterlimit: 10;stroke-width: 2px;fill: none;-webkit-animation-name: el_r149Hj4vh7_Animation;animation-name: el_r149Hj4vh7_Animation;opacity: 0;}#el_ryHcrjED3Q{stroke: #000;stroke-miterlimit: 10;stroke-width: 2px;fill: none;-webkit-animation-name: el_ryHcrjED3Q_Animation;animation-name: el_ryHcrjED3Q_Animation;opacity: 0;}#el_SyUcSiVD2X{stroke: #000;stroke-miterlimit: 10;stroke-width: 2px;fill: none;-webkit-animation-name: el_SyUcSiVD2X_Animation;animation-name: el_SyUcSiVD2X_Animation;opacity: 0;}</style><defs/><title>Asset 1</title><g id="el_ryx9BsNw2Q" data-name="Layer 2"><g id="el_SyZqBjEv27" data-name="Layer 1"><path d="M159.35,35.37c-5.48-6.86-25.88.15-47.25,15.69,5.4-25.62,2.3-47.73-7.19-49.89C95.16-1,82.35,18.65,76.3,45.19c-.89,3.88-1.57,7.68-2.08,11.37-1.4-3-2.92-6.12-4.56-9.23C55.34,20,38,.94,30.89,4.66S29.67,33.51,44,60.8c9.72,18.53,20.85,33.27,29.21,39.67a6.17,6.17,0,0,0,1.2,2.72c6,7.51,29.87-1.59,53.32-20.32S165.34,42.87,159.35,35.37Z" id="el_r1McHiEvnQ"/><ellipse cx="50.52" cy="190.89" rx="112.1" ry="37.27" id="el_ByQ5HoNPn7"/><line x1="79.56" y1="137.86" x2="97.47" y2="155.07" id="el_r149Hj4vh7"/><line x1="65.61" y1="172.32" x2="88.52" y2="190.89" id="el_ryHcrjED3Q"/><line x1="59.05" y1="203.5" x2="79.35" y2="220.97" id="el_SyUcSiVD2X"/></g></g></svg>