<svg xmlns="http://www.w3.org/2000/svg" viewBox="0 0 240.23 196.75"><defs><style>.cls-1{fill:#e8e818;stroke:#000;stroke-miterlimit:10;stroke-width:4px;}</style></defs><title>Asset 1</title><g id="Layer_2" data-name="Layer 2"><g id="Layer_1-2" data-name="Layer 1"><path class="cls-1" d="M227.35,64.32a20.78,20.78,0,0,1,10.88,3.16V28.24C238.23,13.75,229.41,2,218.52,2H178.77c0,.48,0,1,0,1.45a31.89,31.89,0,0,1-63.77,0c0-.49,0-1,0-1.45H21.71C10.83,2,2,13.75,2,28.24V168.51c0,14.49,8.83,26.24,19.71,26.24H218.52c10.89,0,19.71-11.75,19.71-26.24V130.72a20.69,20.69,0,0,1-10.88,3.16c-14.43,0-26.13-15.57-26.13-34.78S212.92,64.32,227.35,64.32Zm-156.87,21a25,25,0,1,1,25-25A25,25,0,0,1,70.48,85.33Zm91.3,84.06a14.86,14.86,0,1,1,14.86-14.85A14.85,14.85,0,0,1,161.78,169.39Z"/></g></g></svg>