<svg xmlns="http://www.w3.org/2000/svg" viewBox="0 0 240.23 196.75"><defs><style>.cls-1{fill:#e8e818;stroke:#000;stroke-miterlimit:10;stroke-width:4px;}</style></defs><title>Asset 2</title><g id="Layer_2" data-name="Layer 2"><g id="Layer_1-2" data-name="Layer 1"><path class="cls-1" d="M201.84,106.63c-1,.05-2.06.08-3.1.08a71.38,71.38,0,0,1-71.38-71.38c0-2.18.12-4.34.31-6.47A31.85,31.85,0,0,1,115,3.45c0-.49,0-1,0-1.45H21.71C10.83,2,2,13.75,2,28.24V168.51c0,14.49,8.83,26.24,19.71,26.24H218.52c10.89,0,19.71-11.75,19.71-26.24V130.72a20.69,20.69,0,0,1-10.88,3.16C214.86,133.88,204.43,122.22,201.84,106.63ZM70.48,85.33a25,25,0,1,1,25-25A25,25,0,0,1,70.48,85.33Zm91.3,84.06a14.86,14.86,0,1,1,14.86-14.85A14.85,14.85,0,0,1,161.78,169.39Z"/></g></g></svg>