<svg version="1.1" id="el_ByRPZHDn7" xmlns="http://www.w3.org/2000/svg" xmlns:xlink="http://www.w3.org/1999/xlink" x="0px" y="0px" viewBox="0 0 270 384" style="enable-background:new 0 0 270.9 384.4;" xml:space="preserve"><style>@-webkit-keyframes el_SJmRv-SD3X_Animation{0%{opacity: 0;}26.67%{opacity: 1;}100%{opacity: 1;}}@keyframes el_SJmRv-SD3X_Animation{0%{opacity: 0;}26.67%{opacity: 1;}100%{opacity: 1;}}#el_ByRPZHDn7 *{-webkit-animation-duration: 3s;animation-duration: 3s;-webkit-animation-timing-function: cubic-bezier(0, 0, 1, 1);animation-timing-function: cubic-bezier(0, 0, 1, 1);}#el_ryfRPZBPnQ{fill: #F7931E;stroke: #000000;stroke-width: 3;stroke-miterlimit: 10;}#el_B1UG0PbHDnQ{fill: none;stroke: #000000;stroke-width: 3;stroke-miterlimit: 10;}#el_HkvfCP-HP2X{fill: #FFFFFF;stroke: #000000;stroke-width: 3;stroke-miterlimit: 10;}#el_SJmRv-SD3X{-webkit-animation-name: el_SJmRv-SD3X_Animation;animation-name: el_SJmRv-SD3X_Animation;opacity: 0;}</style>

<title>Asset 4</title>
<g id="el_rygRwWrwnX">
	<g id="el_SkWCw-rP3Q">
		<path d="M7,257.2c0.2-14.9,17-19.4,23.8-47.1c4.7-19.1,1.1-34.2,0-42.2c-6.7-47.3,33-136.2,99.7-152.6&#10;&#9;&#9;&#9;c41.4-10.2,99.8,6,123.6,56.8c27.1,58-7.2,132.3-46.2,154.3c-20.1,11.4-35.2,5.2-55,23.7c-24.3,22.7-16.7,46.1-35.1,59.3&#10;&#9;&#9;&#9;C90.6,328.9,44.1,310,20.8,284C14.6,277,6.8,268.7,7,257.2z" id="el_ryfRPZBPnQ"/>
		<g id="el_SJmRv-SD3X">
			<path d="M93.1,137.6c0.8,0,1.5-0.7,1.5-1.5s-0.7-1.5-1.5-1.5s-1.5,0.7-1.5,1.5S92.2,137.6,93.1,137.6z" id="el_rJ4CDZrD2X"/>
			<path d="M113.5,132.7c0.8,0,1.5-0.7,1.5-1.5s-0.7-1.5-1.5-1.5s-1.5,0.7-1.5,1.5S112.6,132.7,113.5,132.7z" id="el_HJrCwbSPn7"/>
			<path d="M147.5,124c0.8,0,1.5-0.7,1.5-1.5s-0.7-1.5-1.5-1.5s-1.5,0.7-1.5,1.5S146.6,124,147.5,124z" id="el_HJIRPZBv3m"/>
			<path d="M174.7,110.4c0.8,0,1.5-0.7,1.5-1.5s-0.7-1.5-1.5-1.5s-1.5,0.7-1.5,1.5S173.8,110.4,174.7,110.4z" id="el_H1wADWSP2Q"/>
			<path d="M171.3,52.4c0.8,0,1.5-0.7,1.5-1.5s-0.7-1.5-1.5-1.5s-1.5,0.7-1.5,1.5S170.5,52.4,171.3,52.4z" id="el_BJOCD-Bv2m"/>
			<path d="M130.5,77.1c0.8,0,1.5-0.7,1.5-1.5s-0.7-1.5-1.5-1.5s-1.5,0.7-1.5,1.5S129.7,77.1,130.5,77.1z" id="el_HyF0wWrDh7"/>
			<path d="M180.4,85.7c0.8,0,1.5-0.7,1.5-1.5s-0.7-1.5-1.5-1.5s-1.5,0.7-1.5,1.5S179.5,85.7,180.4,85.7z" id="el_Sk50wZHDhX"/>
			<path d="M115.7,89.4c0.8,0,1.5-0.7,1.5-1.5s-0.7-1.5-1.5-1.5s-1.5,0.7-1.5,1.5S114.9,89.4,115.7,89.4L115.7,89.4z" id="el_B1i0wbBw37"/>
			<path d="M97.6,115.4c0.8,0,1.5-0.7,1.5-1.5s-0.7-1.5-1.5-1.5s-1.5,0.7-1.5,1.5S96.8,115.4,97.6,115.4z" id="el_HJh0wZrwhQ"/>
			<path d="M61.3,103c0.8,0,1.5-0.7,1.5-1.5s-0.7-1.5-1.5-1.5l0,0c-0.8,0-1.5,0.7-1.5,1.5S60.5,103,61.3,103z" id="el_r16AwbBw2m"/>
			<path d="M102.2,79.5c0.8,0,1.5-0.7,1.5-1.5s-0.7-1.5-1.5-1.5s-1.5,0.7-1.5,1.5S101.3,79.5,102.2,79.5z" id="el_B1ARwZBD2Q"/>
			<path d="M128.2,64.7c0.8,0,1.5-0.7,1.5-1.5c0-0.8-0.7-1.5-1.5-1.5s-1.5,0.7-1.5,1.5C126.7,64,127.4,64.7,128.2,64.7z" id="el_rJ1lAv-BD37"/>
			<path d="M147.5,64.7c0.8,0,1.5-0.7,1.5-1.5c0-0.8-0.7-1.5-1.5-1.5s-1.5,0.7-1.5,1.5C146,64,146.7,64.7,147.5,64.7z" id="el_H1llADWHw2m"/>
			<path d="M152,83.2c0.8,0,1.5-0.7,1.5-1.5s-0.7-1.5-1.5-1.5s-1.5,0.7-1.5,1.5S151.2,83.2,152,83.2z" id="el_S1WxCvbrw3Q"/>
			<path d="M144.1,109.2c0.8,0,1.5-0.7,1.5-1.5s-0.7-1.5-1.5-1.5s-1.5,0.7-1.5,1.5S143.2,109.2,144.1,109.2z" id="el_rkzeRvbrP27"/>
			<path d="M201.9,104.2c0.8,0,1.5-0.7,1.5-1.5s-0.7-1.5-1.5-1.5s-1.5,0.7-1.5,1.5S201,104.2,201.9,104.2z" id="el_HkXlRw-HDhX"/>
			<path d="M201.9,143.8c0.8,0,1.5-0.7,1.5-1.5s-0.7-1.5-1.5-1.5s-1.5,0.7-1.5,1.5S201,143.8,201.9,143.8z" id="el_BJNlRDWSwhX"/>
			<path d="M189.4,89.4c0.8,0,1.5-0.7,1.5-1.5s-0.7-1.5-1.5-1.5s-1.5,0.7-1.5,1.5S188.6,89.4,189.4,89.4z" id="el_BkrlCD-rDnQ"/>
			<path d="M207.6,82c0.8,0,1.5-0.7,1.5-1.5s-0.7-1.5-1.5-1.5s-1.5,0.7-1.5,1.5S206.7,82,207.6,82z" id="el_r1LeAvWBD27"/>
			<path d="M170.1,115.4c0.8,0,1.5-0.7,1.5-1.5s-0.7-1.5-1.5-1.5s-1.5,0.7-1.5,1.5S169.3,115.4,170.1,115.4z" id="el_r1wxAvbrP3Q"/>
			<path d="M187.1,124c0.8,0,1.5-0.7,1.5-1.5s-0.7-1.5-1.5-1.5s-1.5,0.7-1.5,1.5S186.3,124,187.1,124z" id="el_rJ_l0v-Bwhm"/>
			<path d="M188.5,144.4c0.8,0,1.5-0.7,1.5-1.5s-0.7-1.5-1.5-1.5s-1.5,0.7-1.5,1.5S187.7,144.4,188.5,144.4z" id="el_BJKeAvZHv37"/>
			<path d="M194,58.5c0.8,0,1.5-0.7,1.5-1.5s-0.7-1.5-1.5-1.5s-1.5,0.7-1.5,1.5S193.2,58.5,194,58.5z" id="el_Hy9lAD-Sw27"/>
			<path d="M188.3,69.7c0.8,0,1.5-0.7,1.5-1.5s-0.7-1.5-1.5-1.5s-1.5,0.7-1.5,1.5S187.5,69.7,188.3,69.7z" id="el_SkoxCvWHwhX"/>
			<path d="M170.1,89.4c0.8,0,1.5-0.7,1.5-1.5s-0.7-1.5-1.5-1.5s-1.5,0.7-1.5,1.5S169.3,89.4,170.1,89.4z" id="el_H1hgAPZBv3X"/>
			<path d="M169,66c0.8,0,1.5-0.7,1.5-1.5c0-0.8-0.7-1.5-1.5-1.5s-1.5,0.7-1.5,1.5C167.5,65.3,168.2,66,169,66z" id="el_H1pgCvbBD2X"/>
			<path d="M153.1,42.5c0.8,0,1.5-0.7,1.5-1.5s-0.7-1.5-1.5-1.5s-1.5,0.7-1.5,1.5S152.3,42.5,153.1,42.5z" id="el_ByRlAPbBP3Q"/>
			<path d="M144.1,49.9c0.8,0,1.5-0.7,1.5-1.5s-0.7-1.5-1.5-1.5s-1.5,0.7-1.5,1.5S143.3,49.9,144.1,49.9z" id="el_rkJ-CDbBw3m"/>
			<path d="M109,54.8c0.8,0,1.5-0.7,1.5-1.5s-0.7-1.5-1.5-1.5s-1.5,0.7-1.5,1.5S108.2,54.8,109,54.8z" id="el_S1x-CwbBP3Q"/>
			<path d="M226.8,85.7c0.8,0,1.5-0.7,1.5-1.5s-0.7-1.5-1.5-1.5s-1.5,0.7-1.5,1.5S226,85.7,226.8,85.7L226.8,85.7z" id="el_Bk-bCDZHP3m"/>
			<path d="M160.1,150.6c0.8,0,1.5-0.7,1.5-1.5s-0.7-1.5-1.5-1.5s-1.5,0.7-1.5,1.5S159.3,150.6,160.1,150.6z" id="el_SJMbRv-BD3Q"/>
			<path d="M121.4,147.5c0.8,0,1.5-0.7,1.5-1.5s-0.7-1.5-1.5-1.5s-1.5,0.7-1.5,1.5S120.6,147.5,121.4,147.5L121.4,147.5z" id="el_B17ZCw-rw3Q"/>
			<path d="M122.5,126.5c0.8,0,1.5-0.7,1.5-1.5s-0.7-1.5-1.5-1.5s-1.5,0.7-1.5,1.5S121.7,126.5,122.5,126.5z" id="el_SyE-APWBP2m"/>
			<path d="M125.9,99.3c0.8,0,1.5-0.7,1.5-1.5s-0.7-1.5-1.5-1.5s-1.5,0.7-1.5,1.5S125.1,99.3,125.9,99.3z" id="el_SJH-APWSP37"/>
			<path d="M239.3,125.2c0.8,0,1.5-0.7,1.5-1.5s-0.7-1.5-1.5-1.5s-1.5,0.7-1.5,1.5S238.5,125.2,239.3,125.2z" id="el_B1IZ0wWSP3m"/>
			<path d="M88.6,70.9c0.8,0,1.5-0.7,1.5-1.5s-0.7-1.5-1.5-1.5s-1.5,0.7-1.5,1.5S87.7,70.9,88.6,70.9z" id="el_r1wbAPbrvhQ"/>
			<path d="M112.4,72.1c0.8,0,1.5-0.7,1.5-1.5s-0.7-1.5-1.5-1.5s-1.5,0.7-1.5,1.5S111.5,72.1,112.4,72.1z" id="el_BJ_-ADWHD2m"/>
			<path d="M247.4,159.2c0.8,0,1.5-0.7,1.5-1.5s-0.7-1.5-1.5-1.5s-1.5,0.7-1.5,1.5S246.6,159.2,247.4,159.2z" id="el_HkKbCPZBPnX"/>
			<path d="M211.1,169.1c0.8,0,1.5-0.7,1.5-1.5s-0.7-1.5-1.5-1.5s-1.5,0.7-1.5,1.5S210.3,169.1,211.1,169.1z" id="el_BycZ0DbSPn7"/>
			<path d="M206.6,171.6c0.8,0,1.5-0.7,1.5-1.5s-0.7-1.5-1.5-1.5s-1.5,0.7-1.5,1.5S205.8,171.6,206.6,171.6z" id="el_rJs-Rv-rvn7"/>
			<path d="M174.9,167.9c0.8,0,1.5-0.7,1.5-1.5s-0.7-1.5-1.5-1.5s-1.5,0.7-1.5,1.5S174.1,167.9,174.9,167.9z" id="el_r1n-ADZBP3m"/>
			<path d="M207.7,159.2c0.8,0,1.5-0.7,1.5-1.5s-0.7-1.5-1.5-1.5s-1.5,0.7-1.5,1.5S206.9,159.2,207.7,159.2z" id="el_Hkab0DbBvhX"/>
			<path d="M204.1,142.6c0.8,0,1.5-0.7,1.5-1.5s-0.7-1.5-1.5-1.5s-1.5,0.7-1.5,1.5S203.3,142.6,204.1,142.6z" id="el_HkRbRDWHv3X"/>
			<path d="M198.5,110.4c0.8,0,1.5-0.7,1.5-1.5s-0.7-1.5-1.5-1.5s-1.5,0.7-1.5,1.5S197.6,110.4,198.5,110.4z" id="el_H1yGRvZHw27"/>
			<path d="M233.6,110.4c0.8,0,1.5-0.7,1.5-1.5s-0.7-1.5-1.5-1.5l0,0c-0.8,0-1.5,0.7-1.5,1.5S232.8,110.4,233.6,110.4z" id="el_HkgM0vbHv2X"/>
			<path d="M181.7,155.5c0.8,0,1.5-0.7,1.5-1.5s-0.7-1.5-1.5-1.5s-1.5,0.7-1.5,1.5S180.9,155.5,181.7,155.5z" id="el_rkWGCvbHvnX"/>
			<path d="M172.6,144.4c0.8,0,1.5-0.7,1.5-1.5s-0.7-1.5-1.5-1.5s-1.5,0.7-1.5,1.5S171.8,144.4,172.6,144.4z" id="el_B1MMCD-Sv2X"/>
			<path d="M154.3,142.6c0.8,0,1.5-0.7,1.5-1.5s-0.7-1.5-1.5-1.5s-1.5,0.7-1.5,1.5S153.4,142.6,154.3,142.6z" id="el_Sk7fRwbSDnX"/>
			<path d="M110.1,135.1c0.8,0,1.5-0.7,1.5-1.5s-0.7-1.5-1.5-1.5s-1.5,0.7-1.5,1.5S109.2,135.1,110.1,135.1L110.1,135.1z" id="el_BkVGCw-SvhQ"/>
			<path d="M152,135.1c0.8,0,1.5-0.7,1.5-1.5s-0.7-1.5-1.5-1.5s-1.5,0.7-1.5,1.5S151.2,135.1,152,135.1z" id="el_BkSG0DbBv2m"/>
		</g>
		<line x1="122.8" y1="380.1" x2="122.8" y2="384.4" id="el_B1UG0PbHDnQ"/>
		<path d="M65.9,349.1l11.3-48.8c2.8-12.1-1.8-23.6-10.2-26.4c-0.5-1.7-1.3-3.4-2.2-4.9l0,0c-5.8-9.2-17.1-9.3-25.2-0.2&#10;&#9;&#9;&#9;L9,303.5c-8,9.1-9.9,24.1-4.1,33.4l0,0c5.8,9.2,17.1,9.3,25.2,0.1l3.7-4.2l-2.2,9.3c-3,12.8,2.3,24.9,11.8,26.8l0,0&#10;&#9;&#9;&#9;C52.8,370.9,63,361.9,65.9,349.1z" id="el_HkvfCP-HP2X"/>
	</g>
</g>
</svg>