<svg id="burger" xmlns="http://www.w3.org/2000/svg" viewBox="0 0 526.18 394.58"><defs><style>.cls-1{fill:#cc2e2e;}.cls-2{fill:#6bf400;stroke:#6bf400;stroke-miterlimit:10;}.cls-3{fill:#513607;}.cls-4{fill:#e8a621;}.cls-5{fill:#f4cf14;}.cls-6{fill:#705a13;}</style></defs><title>hamburger_logo</title><rect class="cls-1" x="25.75" y="220.51" width="492.78" height="58.9" rx="12" ry="12"/><path class="cls-2" d="M336.4,600.39c-192.29,54.91,162.45,28.28,162.45,28.28,260.26,35,295.07,6.46,295.07,6.46,69.63-119.6-229.11-34.74-229.11-34.74C411,558.79,336.4,600.39,336.4,600.39Z" transform="translate(-278.77 -394.64)"/><path class="cls-3" d="M793.08,603.68H334.7c-22,0-29.53-7.52-29.53-16.71V555.41a16.76,16.76,0,0,1,16.71-16.72H780.26A16.76,16.76,0,0,1,797,555.41V587C797,596.16,789.46,603.68,793.08,603.68Z" transform="translate(-278.77 -394.64)"/><polygon class="cls-4" points="230.22 148.56 242.58 148.56 242.58 148.56 230.22 148.56 230.22 148.56"/><path class="cls-4" d="M781,542.87a19,19,0,0,0,17.32-26.74c-25.36-56.57-53.79-118-139.51-121.49H464.17c7.34,0-31,1.94-45.06,8.14-76.54,33.7-89.36,63.51-112.94,112.94a19,19,0,0,0,17.13,27.15Z" transform="translate(-278.77 -394.64)"/><path class="cls-4" d="M313.12,705.06c33.61,39.71,87.59,75.56,132.36,83.87a18,18,0,0,0,3.35.3H652.41c.69,0,1.37-.08,2.06-.11,64-2.8,126.94-40.67,139.89-86.59,3.93-13.93-1.53-28.2-16-28.2h-451C311.41,674.33,302.85,692.92,313.12,705.06Z" transform="translate(-278.77 -394.64)"/><polyline class="cls-5" points="499.16 281.37 292.57 394.58 79.89 279.41"/><path class="cls-6" d="M406.59,442.51a10.61,10.61,0,0,0-2.7,3.37c-2.44,4.83-.81,10.57,3.63,12.81s10,.15,12.46-4.68a10.41,10.41,0,0,0,1.11-4.17h0l3.89-23-18.4,15.69Z" transform="translate(-278.77 -394.64)"/><path class="cls-6" d="M404.6,498.47l-1.44-23.31-14.35,19.46h0a10.36,10.36,0,0,0-1.86,3.88c-1.28,5.26,1.6,10.48,6.43,11.66s9.8-2.13,11.08-7.39a10.5,10.5,0,0,0,.14-4.31Z" transform="translate(-278.77 -394.64)"/><path class="cls-6" d="M548.56,448.83a10.38,10.38,0,0,0-2-3.82h0l-12.67-19.62-3,24h0a10.36,10.36,0,0,0,.28,4.3c1.45,5.21,6.52,8.35,11.32,7S550,454,548.56,448.83Z" transform="translate(-278.77 -394.64)"/><path class="cls-6" d="M559.67,498.82a10.49,10.49,0,0,0-1.84-3.9h0L545.9,474.84,542,498.71h0a10.44,10.44,0,0,0,.12,4.3c1.26,5.27,6.21,8.6,11.05,7.44S560.93,504.08,559.67,498.82Z" transform="translate(-278.77 -394.64)"/><path class="cls-6" d="M465.39,447.35,458.46,425l-9.33,22.31h0a10.47,10.47,0,0,0-.88,4.21c0,5.42,4,9.8,9,9.8s9-4.38,9-9.8a10.47,10.47,0,0,0-.89-4.21Z" transform="translate(-278.77 -394.64)"/><path class="cls-6" d="M448.42,496.93l-6.92-22.31-9.34,22.31h0a10.48,10.48,0,0,0-.88,4.22c0,5.41,4,9.8,9,9.8s9-4.39,9-9.8a10.48,10.48,0,0,0-.88-4.22Z" transform="translate(-278.77 -394.64)"/><path class="cls-6" d="M488.44,496.54h0l-8-22-8.27,22.72h0a10.47,10.47,0,0,0-.69,4.25c.26,5.41,4.5,9.6,9.47,9.37s8.79-4.82,8.54-10.22A10.63,10.63,0,0,0,488.44,496.54Z" transform="translate(-278.77 -394.64)"/><path class="cls-6" d="M506.67,447.35h0L499.76,425l-9.34,22.31h0a10.47,10.47,0,0,0-.88,4.21c0,5.42,4,9.8,9,9.8s9-4.38,9-9.8A10.31,10.31,0,0,0,506.67,447.35Z" transform="translate(-278.77 -394.64)"/><path class="cls-6" d="M523.43,495.38h0l-10.88-20.67-5.11,23.63h0a10.39,10.39,0,0,0-.1,4.31c1,5.32,5.75,8.9,10.65,8s8.06-6,7.07-11.28A10.54,10.54,0,0,0,523.43,495.38Z" transform="translate(-278.77 -394.64)"/><path class="cls-6" d="M587.12,442.44a10.58,10.58,0,0,0-2.69,3.37c-2.44,4.83-.82,10.56,3.63,12.81s10,.15,12.46-4.69a10.53,10.53,0,0,0,1.11-4.16h0l3.88-23-18.39,15.7Z" transform="translate(-278.77 -394.64)"/><path class="cls-6" d="M585.14,498.4l-1.44-23.31-14.36,19.46h0a10.48,10.48,0,0,0-1.86,3.89c-1.28,5.26,1.6,10.48,6.43,11.66s9.8-2.13,11.08-7.39a10.5,10.5,0,0,0,.14-4.31Z" transform="translate(-278.77 -394.64)"/><path class="cls-6" d="M729.1,448.76a10.29,10.29,0,0,0-2-3.83h0l-12.67-19.61-3,24h0a10.54,10.54,0,0,0,.29,4.3c1.45,5.21,6.52,8.35,11.31,7S730.56,454,729.1,448.76Z" transform="translate(-278.77 -394.64)"/><path class="cls-6" d="M740.21,498.74a10.45,10.45,0,0,0-1.84-3.89h0l-11.93-20.08-3.88,23.87h0a10.44,10.44,0,0,0,.12,4.3c1.26,5.27,6.21,8.59,11.05,7.43S741.47,504,740.21,498.74Z" transform="translate(-278.77 -394.64)"/><path class="cls-6" d="M645.92,447.28,639,425l-9.33,22.31h0a10.44,10.44,0,0,0-.89,4.21c0,5.41,4,9.8,9,9.8s9-4.39,9-9.8a10.44,10.44,0,0,0-.89-4.21Z" transform="translate(-278.77 -394.64)"/><path class="cls-6" d="M629,496.86,622,474.55l-9.34,22.31h0a10.47,10.47,0,0,0-.88,4.21c0,5.42,4,9.8,9,9.8s9-4.38,9-9.8a10.31,10.31,0,0,0-.89-4.21Z" transform="translate(-278.77 -394.64)"/><path class="cls-6" d="M669,496.47h0l-8-22-8.27,22.72h0a10.47,10.47,0,0,0-.68,4.25c.26,5.41,4.5,9.6,9.47,9.36s8.79-4.81,8.53-10.21A10.46,10.46,0,0,0,669,496.47Z" transform="translate(-278.77 -394.64)"/><path class="cls-6" d="M687.21,447.28h0L680.29,425,671,447.28h0a10.43,10.43,0,0,0-.88,4.21c0,5.41,4,9.8,9,9.8s9-4.39,9-9.8A10.44,10.44,0,0,0,687.21,447.28Z" transform="translate(-278.77 -394.64)"/><path class="cls-6" d="M704,495.3h0l-10.88-20.66L688,498.27h0a10.39,10.39,0,0,0-.1,4.31c1,5.32,5.75,8.9,10.64,8s8.06-6,7.08-11.28A10.51,10.51,0,0,0,704,495.3Z" transform="translate(-278.77 -394.64)"/></svg>