<svg id="Layer_1" data-name="Layer 1" xmlns="http://www.w3.org/2000/svg" viewBox="0 0 274.34 317.49"><defs><style>.cls-1{fill:#fff;stroke:#000;stroke-miterlimit:10;stroke-width:3px;}</style></defs><title>egg</title><path class="cls-1" d="M369.57,362.51c-5.4,13.06-31,74.88-6.71,131.48h0c5,10.29,14.05,28.67,33,44.2,34.12,27.92,75.46,26.39,95.79,25.65,23.78-.88,64.48-2.27,95.73-31.84,41.16-38.94,36.9-97.36,35.85-113.59-5-77.1-65.29-172-137.47-168.67C414.86,253,375.06,349.23,369.57,362.51Z" transform="translate(-351.08 -248.15)"/><path class="cls-1" d="M405,600" transform="translate(-351.08 -248.15)"/><path class="cls-1" d="M684,433.35" transform="translate(-351.08 -248.15)"/><path class="cls-1" d="M666.67,499.73" transform="translate(-351.08 -248.15)"/><path class="cls-1" d="M961.53,379.66" transform="translate(-351.08 -248.15)"/></svg>