<?xml version="1.0" encoding="utf-8"?>
<!-- Generator: Adobe Illustrator 23.0.0, SVG Export Plug-In . SVG Version: 6.00 Build 0)  -->
<svg version="1.1" id="Layer_1" xmlns="http://www.w3.org/2000/svg" xmlns:xlink="http://www.w3.org/1999/xlink" x="0px" y="0px"
	 viewBox="0 0 268.2 204.8" style="enable-background:new 0 0 268.2 204.8;" xml:space="preserve">
<style type="text/css">
	.st0{fill:#FFFFFF;stroke:#000000;stroke-miterlimit:10;}
	.st1{fill:#FFFFFF;stroke:#000000;stroke-width:5;stroke-miterlimit:10;}
	.st2{fill:#C1272D;stroke:#000000;stroke-width:5;stroke-miterlimit:10;}
	.st3{fill:#FFFFFF;}
</style>
<title>meat</title>
<path class="st0" d="M-123.3,118.2"/>
<path class="st0" d="M-85.7,45.7"/>
<path class="st0" d="M-85.7,58.8"/>
<g>
	<path class="st1" d="M3.8,107c-10.4,30.2,43.7,86.6,107,94.3c72.8,8.9,146.4-48,154.2-109.1c4.6-35.4-11.7-81.4-41.1-88.8
		c-26.4-6.7-40.8,23.5-106.7,55.7C47.6,93.1,11.3,85,3.8,107z"/>
	<path class="st2" d="M29.2,105.8c-8.4,22,35.2,63.1,86.1,68.7c58.6,6.5,117.8-35,124.2-79.5c3.7-25.8-9.4-59.3-33.1-64.7
		c-21.3-4.9-32.8,17.1-85.9,40.6C64.4,95.6,35.3,89.7,29.2,105.8z"/>
</g>
<circle class="st3" cx="193.3" cy="79.3" r="6"/>
</svg>
