<svg xmlns="http://www.w3.org/2000/svg" viewBox="0 0 270.23 206.82"><defs><style>.cls-1{fill:#fff;stroke-width:7px;}.cls-1,.cls-2,.cls-3{stroke:#000;stroke-miterlimit:10;}.cls-2{fill:#a67c52;}.cls-2,.cls-3{stroke-width:5px;}.cls-3{fill:none;}</style></defs><title>Asset 2</title><g id="Layer_2" data-name="Layer 2"><g id="Layer_1-2" data-name="Layer 1"><path class="cls-1" d="M4.78,108.12c-10.35,30.2,43.75,86.57,107,94.28,72.79,8.88,146.35-48.06,154.2-109.21,4.55-35.4-11.74-81.37-41.18-88.76C198.36-2.22,184,27.94,118.12,60.16,48.55,94.18,12.32,86.11,4.78,108.12Z"/><path class="cls-2" d="M37.47,105.85c-8.34,22,35.22,63.06,86.14,68.68a115.39,115.39,0,0,0,29.2-.57c47.73-6.93,89.69-41.9,94.95-79,3.67-25.78-9.45-59.27-33.15-64.66-21.28-4.84-32.84,17.13-85.89,40.61A309.45,309.45,0,0,1,82.15,87.25C56.07,94.2,41.55,95.07,37.47,105.85Z"/><line class="cls-3" x1="95.28" y1="83.48" x2="168.67" y2="170.59"/><line class="cls-3" x1="138.62" y1="66.32" x2="200.29" y2="157.01"/><line class="cls-3" x1="175.36" y1="45.33" x2="221.93" y2="140.68"/><line class="cls-3" x1="54.66" y1="143.08" x2="230.57" y2="39.3"/><line class="cls-3" x1="96.19" y1="168.05" x2="248.37" y2="72.23"/></g></g></svg>