<svg xmlns="http://www.w3.org/2000/svg" viewBox="0 0 279 237" id="el_BJN4t7rPhm"><style>@-webkit-keyframes el_H1oVYXHwnm_Animation{0%{opacity: 0;}33.33%{opacity: 1;}100%{opacity: 1;}}@keyframes el_H1oVYXHwnm_Animation{0%{opacity: 0;}33.33%{opacity: 1;}100%{opacity: 1;}}@-webkit-keyframes el_r1hVtXrD2X_Animation{0%{opacity: 0;}33.33%{opacity: 1;}100%{opacity: 1;}}@keyframes el_r1hVtXrD2X_Animation{0%{opacity: 0;}33.33%{opacity: 1;}100%{opacity: 1;}}@-webkit-keyframes el_B16EKQrDh7_Animation{0%{opacity: 0;}33.33%{opacity: 1;}100%{opacity: 1;}}@keyframes el_B16EKQrDh7_Animation{0%{opacity: 0;}33.33%{opacity: 1;}100%{opacity: 1;}}#el_BJN4t7rPhm *{-webkit-animation-duration: 3s;animation-duration: 3s;-webkit-animation-timing-function: cubic-bezier(0, 0, 1, 1);animation-timing-function: cubic-bezier(0, 0, 1, 1);}#el_rkw4KQSDnQ{fill: none;stroke: #000;stroke-miterlimit: 10;stroke-width: 5px;}#el_S1OVYXBv2X{fill: none;stroke: #000;stroke-miterlimit: 10;stroke-width: 5px;}#el_HyKEYXSvnm{fill: none;stroke: #000;stroke-miterlimit: 10;stroke-width: 7px;}#el_rJq4YmBw3X{fill: none;stroke: #000;stroke-miterlimit: 10;stroke-width: 7px;}#el_H1oVYXHwnm{fill: none;stroke: #000;stroke-miterlimit: 10;stroke-width: 7px;-webkit-animation-name: el_H1oVYXHwnm_Animation;animation-name: el_H1oVYXHwnm_Animation;opacity: 0;}#el_r1hVtXrD2X{fill: none;stroke: #000;stroke-miterlimit: 10;stroke-width: 7px;-webkit-animation-name: el_r1hVtXrD2X_Animation;animation-name: el_r1hVtXrD2X_Animation;opacity: 0;}#el_B16EKQrDh7{fill: none;stroke: #000;stroke-miterlimit: 10;stroke-width: 7px;-webkit-animation-name: el_B16EKQrDh7_Animation;animation-name: el_B16EKQrDh7_Animation;opacity: 0;}</style><defs/><title>Asset 4</title><g id="el_H1rNYmSv3Q" data-name="Layer 2"><g id="el_HkLVY7rw2X" data-name="Layer 1"><path d="M124.22,108.31C78,108.31,36.52,101.58,8.61,91A100.48,100.48,0,0,0,2.5,125.49c0,60.45,53.84,109.45,120.25,109.45S243,185.94,243,125.49a100.4,100.4,0,0,0-5.77-33.56C209.38,102,169.07,108.31,124.22,108.31Z" id="el_rkw4KQSDnQ"/><line x1="8.61" y1="90.96" x2="237.23" y2="91.93" id="el_S1OVYXBv2X"/><path d="M275.43,166.92c0,19.41-29,35.12-64.86,35.12" id="el_HyKEYXSvnm"/><path d="M275.87,167c0-23.48-14.7-42.48-32.87-42.48" id="el_rJq4YmBw3X"/><path d="M129.37,1.27c-13.26,34-16.4,64.55-7,68.21" id="el_H1oVYXHwnm"/><path d="M81.68,1.27c-13.27,34-16.41,64.55-7,68.21" id="el_r1hVtXrD2X"/><path d="M178.15,1.27c-13.26,34-16.4,64.55-7,68.21" id="el_B16EKQrDh7"/></g></g></svg>