<svg xmlns="http://www.w3.org/2000/svg" viewBox="0 0 165.43 362.32"><defs><style>.cls-1{fill:#f79341;}.cls-2{fill:#60f400;stroke:#60f400;}.cls-2,.cls-3,.cls-4{stroke-miterlimit:10;}.cls-3{fill:#fffa5a;stroke:#fffa5a;}.cls-4{fill:#f9d006;stroke:#f9d006;}</style></defs><title>popsicle</title><g id="Layer_2" data-name="Layer 2"><g id="Layer_1-2" data-name="Layer 1"><path class="cls-1" d="M82.71,276.4c-9.61,0-17.48,5.57-17.48,12.38v61.16c0,6.81,7.87,12.38,17.48,12.38s17.48-5.57,17.48-12.38V288.78C100.19,282,92.33,276.4,82.71,276.4Z"/><path class="cls-2" d="M82.71.5h0C41.78.5,7.51,34.2.58,78.21H164.84C157.92,34.2,123.65.5,82.71.5Z"/><path class="cls-3" d="M.58,218.7a82.37,82.37,0,0,0,82.13,82.13h0a82.37,82.37,0,0,0,82.13-82.13v-1.95H.58Z"/><rect class="cls-4" x="0.58" y="78.21" width="164.26" height="138.54"/><path class="cls-1" d="M82.71,276.4c-9.61,0-17.48,5.57-17.48,12.38v61.16c0,6.81,7.87,12.38,17.48,12.38s17.48-5.57,17.48-12.38V288.78C100.19,282,92.33,276.4,82.71,276.4Z"/><path class="cls-2" d="M82.71.5h0C41.78.5,7.51,34.2.58,78.21H164.84C157.92,34.2,123.65.5,82.71.5Z"/><path class="cls-3" d="M.58,218.7a82.37,82.37,0,0,0,82.13,82.13h0a82.37,82.37,0,0,0,82.13-82.13v-1.95H.58Z"/><rect class="cls-4" x="0.58" y="78.21" width="164.26" height="138.54"/></g></g></svg>