<svg xmlns="http://www.w3.org/2000/svg" viewBox="0 0 165.43 359.97"><defs><style>.cls-1{fill:#f79341;}.cls-2{fill:#fffa5a;stroke:#fffa5a;}.cls-2,.cls-3,.cls-4{stroke-miterlimit:10;}.cls-3{fill:#f9d006;stroke:#f9d006;}.cls-4{fill:#60f400;stroke:#60f400;}</style></defs><title>popsicle hover</title><g id="Layer_2" data-name="Layer 2"><g id="Layer_1-2" data-name="Layer 1"><path class="cls-1" d="M82.71,274c-9.61,0-17.48,5.57-17.48,12.38v61.17c0,6.81,7.87,12.38,17.48,12.38s17.48-5.57,17.48-12.38V286.42C100.19,279.61,92.33,274,82.71,274Z"/><path class="cls-2" d="M.58,216.35a82.37,82.37,0,0,0,82.13,82.13h0a82.37,82.37,0,0,0,82.13-82.13V214.4H.58Z"/><rect class="cls-3" x="0.58" y="75.85" width="164.26" height="138.54"/><path class="cls-4" d="M147.13,55.49a17.73,17.73,0,0,1-16.8-12.12A23.73,23.73,0,0,1,97,26.13a34.76,34.76,0,0,1-4.11.25C76.7,26.38,63.6,15.21,63.6,1.44c0-.26,0-.52,0-.78C31.5,9.23,6.4,38.9.58,75.85H164.84A101.64,101.64,0,0,0,158,51.78,17.67,17.67,0,0,1,147.13,55.49Z"/></g></g></svg>