<svg xmlns="http://www.w3.org/2000/svg" viewBox="0 0 280 352" id="el_B1mxfh3gw3Q"><style>@-webkit-keyframes el_SkPlf33gP2m_Animation{8.89%{opacity: 0;}28.89%{opacity: 0.5;}0%{opacity: 0;}100%{opacity: 0.5;}}@keyframes el_SkPlf33gP2m_Animation{8.89%{opacity: 0;}28.89%{opacity: 0.5;}0%{opacity: 0;}100%{opacity: 0.5;}}@-webkit-keyframes el_By_ez3hxP3m_Animation{22.22%{opacity: 0;}42.22%{opacity: 0.7;}0%{opacity: 0;}100%{opacity: 0.7;}}@keyframes el_By_ez3hxP3m_Animation{22.22%{opacity: 0;}42.22%{opacity: 0.7;}0%{opacity: 0;}100%{opacity: 0.7;}}#el_B1mxfh3gw3Q *{-webkit-animation-duration: 3s;animation-duration: 3s;-webkit-animation-timing-function: cubic-bezier(0, 0, 1, 1);animation-timing-function: cubic-bezier(0, 0, 1, 1);}#el_By8gznnlw37{fill: #118fed;stroke: #118fed;stroke-width: 10px;opacity: 0.5;stroke-miterlimit: 10;}#el_SkPlf33gP2m{fill: #960b51;opacity: 0;-webkit-animation-name: el_SkPlf33gP2m_Animation;animation-name: el_SkPlf33gP2m_Animation;}#el_By_ez3hxP3m{stroke-miterlimit: 10;opacity: 0;fill: #fff;stroke: #fff;stroke-width: 5px;-webkit-animation-name: el_By_ez3hxP3m_Animation;animation-name: el_By_ez3hxP3m_Animation;-webkit-animation-timing-function: cubic-bezier(0.42, 0, 0.58, 1);animation-timing-function: cubic-bezier(0.42, 0, 0.58, 1);}#el_SkPlf33gP2m_r1wBagwh7{-webkit-transform: translate(15.309897422790527px, 15px) translate(-15.309897422790527px, -15px) translate(0px, 0px);transform: translate(15.309897422790527px, 15px) translate(-15.309897422790527px, -15px) translate(0px, 0px);}</style><defs/><title>Asset 1</title><g id="el_H14xf3hgP2Q" data-name="Layer 2"><g id="el_SJSgfnngP2Q" data-name="Layer 1"><path d="M230,329H149V193.69A135.05,135.05,0,0,0,263.76,5H16.24A135.05,135.05,0,0,0,131,193.69V329H50a9,9,0,0,0,0,18H230a9,9,0,0,0,0-18Z" id="el_By8gznnlw37"/><path d="M131.69,187.46V188h16.62v-.49c65-4.24,116.38-57.72,116.38-123.09A121.88,121.88,0,0,0,254.31,15H25.69A121.88,121.88,0,0,0,15.31,64.37C15.31,129.74,66.7,183.22,131.69,187.46Z" id="el_SkPlf33gP2m"/><path d="M248,41c2.92.27,9.44,38.35-9,72-12.85,23.44-34,37.77-36,36s13.79-16.66,27-45C246.77,68,245.51,40.77,248,41Z" id="el_By_ez3hxP3m"/></g></g></svg>