<svg xmlns="http://www.w3.org/2000/svg" viewBox="0 0 280 352"><defs><style>.cls-1{fill:#118fed;stroke:#118fed;stroke-width:10px;opacity:0.5;}.cls-1,.cls-3{stroke-miterlimit:10;}.cls-2{fill:#960b51;}.cls-2,.cls-3{opacity:0.7;}.cls-3{fill:#fff;stroke:#fff;stroke-width:5px;}</style></defs><title>Asset 1</title><g id="Layer_2" data-name="Layer 2"><g id="Layer_1-2" data-name="Layer 1"><path class="cls-1" d="M230,329H149V193.69A135.05,135.05,0,0,0,263.76,5H16.24A135.05,135.05,0,0,0,131,193.69V329H50a9,9,0,0,0,0,18H230a9,9,0,0,0,0-18Z"/><path class="cls-2" d="M131.69,187.46V188h16.62v-.49c65-4.24,116.38-57.72,116.38-123.09A121.88,121.88,0,0,0,254.31,15H25.69A121.88,121.88,0,0,0,15.31,64.37C15.31,129.74,66.7,183.22,131.69,187.46Z"/><path class="cls-3" d="M248,41c2.92.27,9.44,38.35-9,72-12.85,23.44-34,37.77-36,36s13.79-16.66,27-45C246.77,68,245.51,40.77,248,41Z"/></g></g></svg>